<?xml version="1.0" encoding="UTF-8"?>
<svg id="Layer_1" data-name="Layer 1" xmlns="http://www.w3.org/2000/svg" viewBox="0 0 591.66 141.55">
  <defs>
    <style>
      .cls-1 {
        fill: #ed1c24;
      }
    </style>
  </defs>
  <path class="cls-1" d="M536.91,95.58l-59.34-48.89L461.93.06h-6.59l11.37,45.17-75.7,50.35h-196.33l-75.38-49.77L130.17,0h-7.23l-16.7,50.22-48.64,45.36H0v15.73s69.55,2.47,69.55,9.75h-1.91v19.09h10.29v-18.78s105.24-14.8,214.93-14.8,227.8,12.13,227.8,12.13v22.85h9.54v-22.33s55.21-6.26,61.48-6.26v-17.38h-54.76ZM61.57,95.58l43.41-41.59-13.83,41.59h-29.58ZM118.84,47.73l-.02.09,71.88,47.76h-83.21l11.36-47.85ZM469.13,95.58h-74.12l72.28-48.03,12.09,48.03h-10.24ZM493.96,95.58l-15.48-46.18,54.48,46.18h-38.99Z"/>
</svg>