<?xml version="1.0" encoding="UTF-8"?>
<svg id="Layer_1" data-name="Layer 1" xmlns="http://www.w3.org/2000/svg" viewBox="0 0 722 167.84">
  <defs>
    <style>
      .cls-1 {
        fill: #fff;
      }

      .cls-2 {
        fill: #ee2a7b;
      }
    </style>
  </defs>
  <path class="cls-2" d="M6.92,97.39S167.14,0,359.82,0s354.99,97.39,354.99,97.39v23.39h2l5.18,43.55h-27.64l4.98-43.58,3.49-.25v-8.47H41.97v8.53h-22.82l3.67,47.26H0l2.85-47.26,3.37-.3v-7.46h-1.94v-14.18l2.64-1.25Z"/>
  <path class="cls-1" d="M68.73,72.82v16.87h-33.36s26.65-16.87,33.36-16.87Z"/>
  <path class="cls-1" d="M73.53,70.71v18.98h53.29v-40.83s-48.5,19.75-53.29,21.85Z"/>
  <path class="cls-1" d="M133.34,46.94v42.75h51.76V31.22s-47.73,13.23-51.76,15.72Z"/>
  <path class="cls-1" d="M193.15,29.11v59.62h50.23V20.1s-59.24,9.97-50.23,9.01Z"/>
  <path class="cls-1" d="M252.2,17.04v71.7h47.93V10.71s-44.86,6.13-47.93,6.33Z"/>
  <path class="cls-1" d="M651.14,70.71v18.98h-53.29v-40.83s48.5,19.75,53.29,21.85Z"/>
  <path class="cls-1" d="M591.33,46.94v42.75h-51.76V31.22s47.73,13.23,51.76,15.72Z"/>
  <path class="cls-1" d="M531.52,29.11v59.62h-50.23V20.1s59.24,9.97,50.23,9.01Z"/>
  <path class="cls-1" d="M472.47,17.04v71.7h-47.93V10.71s44.86,6.13,47.93,6.33Z"/>
  <rect class="cls-1" x="310.28" y="8.79" width="46.01" height="79.94"/>
  <rect class="cls-1" x="367.41" y="8.79" width="46.01" height="79.94"/>
</svg>