<?xml version="1.0" encoding="UTF-8"?>
<svg id="Layer_1" data-name="Layer 1" xmlns="http://www.w3.org/2000/svg" viewBox="0 0 932.25 276.39">
  <defs>
    <style>
      .cls-1 {
        fill: #00a651;
      }
    </style>
  </defs>
  <path class="cls-1" d="M0,223.86s289.58-9.9,319.28-15.56,140.7-31.11,154.85-43.13,22.63-21.34,22.63-21.34L450.08,11.75l-5.54-8.32,3.95-3.43,2.48.25,10.57,7.38s60.31,127.75,65.76,131.94,122.58,81.66,127.43,82.22,187.16,9.51,187.16,9.51v10.63l-178.75-8.24s-4.42.34-4.42,2.72.17,39.79.17,39.79l-11.56.17-4.08-.17-2.42-43.44-156.47-5-1.66,1.74h2.77l-27.12,43.49h-21.98l-38.62-.7-23.3-30.93-13.4-15.67L0,232.72v-8.85Z"/>
</svg>