<?xml version="1.0" encoding="UTF-8"?>
<svg id="Layer_1" data-name="Layer 1" xmlns="http://www.w3.org/2000/svg" viewBox="0 0 91.3 91.45">
  <defs>
    <style>
      .cls-1 {
        fill: #00aeef;
      }

      .cls-2 {
        fill: #fff;
      }
    </style>
  </defs>
  <g id="W1gVsk">
    <g>
      <path d="M91.3,0v91.45H0V0h91.3ZM90.99.46H.3v90.69h90.69V.46Z"/>
      <path class="cls-2" d="M90.99.46v90.69H.3V.46h90.69ZM88.26,3.19H2.89v85.37h85.37V3.19Z"/>
      <path class="cls-1" d="M88.26,3.19v85.37H2.89V3.19h85.37ZM27.88,68.97h-8.28v6.84h50.89v-6.84h-8.43c-1.57,0-3.75-2.42-4.54-3.66-2.69-4.17-3.61-10.14-3.73-15.03,3.45.85,7.66.39,7.14-4.18-.4-3.54-4.51-3.4-7.14-2.81,1.03-6.35,8.13-12.92,5.43-19.63-2.69-6.68-15.24-6.76-21.05-5.33-5.07,1.25-8.83,4.47-7.89,10.11.87,5.23,4.96,9.61,5.88,14.85-2.3-.28-4.72-.94-6.38,1.14-1.1,1.38-1.08,3.31,0,4.7,1.58,2.04,4.13,1.48,6.37,1.14.03,2.8-.34,5.61-1.01,8.33-.85,3.45-3.15,9.8-7.26,10.36Z"/>
      <path class="cls-2" d="M27.88,68.97c4.12-.55,6.41-6.91,7.26-10.36.67-2.71,1.04-5.53,1.01-8.33-2.25.34-4.79.9-6.37-1.14-1.08-1.39-1.1-3.33,0-4.7,1.66-2.08,4.08-1.42,6.38-1.14-.93-5.24-5.01-9.62-5.88-14.85-.94-5.64,2.82-8.86,7.89-10.11,5.82-1.43,18.36-1.36,21.05,5.33,2.7,6.72-4.4,13.29-5.43,19.63,2.63-.59,6.74-.73,7.14,2.81.52,4.57-3.69,5.03-7.14,4.18.12,4.88,1.05,10.86,3.73,15.03.8,1.24,2.97,3.66,4.54,3.66h8.43v6.84H19.6v-6.84h8.28Z"/>
    </g>
  </g>
</svg>