<?xml version="1.0" encoding="UTF-8"?>
<svg id="Layer_1" data-name="Layer 1" xmlns="http://www.w3.org/2000/svg" viewBox="0 0 91.57 150.11">
  <defs>
    <style>
      .cls-1 {
        fill: #fff200;
      }
    </style>
  </defs>
  <rect class="cls-1" x=".57" width="89.7" height="150.11" rx="5.33" ry="5.33"/>
  <g id="Oq06LS">
    <g>
      <path d="M46.38,149.77c-.07-.03,0-.4-.37-.38-.53.02-.9.56-1.48.46-12.78-.47-25.69.49-38.44.2-2.83-.06-4.95-1.42-5.83-4.16-.53-23.11-.06-46.32-.24-69.47.13-1.31.98-1.08,0-2.52V5.68C.24,3.22,1.67,1.09,4.06.37l40.68-.11c1.44.98,1.21.13,2.52,0h39.93c2.22.33,3.69,2.2,4.26,4.25l.11,69.18c-.45,1.23-.44,1.5,0,2.73l-.11,69.18c-.6,2.24-2.13,3.89-4.47,4.24l-40.61-.07ZM90.28,7.07v-3.08c0-1.3-2.33-2.46-3.5-2.45-.27,0-.91-.15-.75.32.03.08,1.27.26,1.68.45.89.41,1.81,1.43,2.09,2.37l.48,2.38ZM3.01,133.9v11.15c0,.54.97,2.09,1.69,2.13,17.29.32,34.65-.17,51.93.32,9.48-1.01,20.11.65,29.51-.21,1.8-.17,2.4-1.62,2.44-3.29V6.74c-.41-3.91-3.56-2.87-6.25-2.89-12.24-.1-24.66-.31-37,0-6.1-.23-12.19.02-18.31-.15l-.27,71.64-23.75.14v14.45h13.59v14.87H3.01v14.45l13.59-.21v14.87H3.01ZM16.6,17.27H3.01v14.45h13.59v-14.45ZM16.6,46.37H3.01v14.45h13.59v-14.45ZM90.28,137.73h-.21v4.46h.21v-4.46Z"/>
      <path d="M74.56,43.4v39.73h8.07v10.73s-.3.32-.32.32h-7.75v12.43c0,.11.34.45.21.74h-10.51s-.32-.3-.32-.32v-12.85h-30.47s-.32-.3-.32-.32v-9.99c10.49-13.42,20.96-26.88,31.21-40.47h10.19ZM63.95,83.13v-22.1l-16.77,22.1h16.77Z"/>
    </g>
  </g>
</svg>