<?xml version="1.0" encoding="UTF-8"?>
<svg id="Layer_1" data-name="Layer 1" xmlns="http://www.w3.org/2000/svg" viewBox="0 0 86.74 87.01">
  <defs>
    <style>
      .cls-1 {
        fill: #1c75bc;
      }
    </style>
  </defs>
  <g id="PIwiVn">
    <path class="cls-1" d="M0,0h86.74v87.01H0V0ZM47.88,26.31c0-1.8-1.46-3.26-3.26-3.26s-3.26,1.46-3.26,3.26,1.46,3.26,3.26,3.26,3.26-1.46,3.26-3.26ZM80.9,27.25l-22.39,6.01c-.86-.44-3.46-3.4-4.16-3.41-.94,0-3.04,2.26-4.19,2.4l-10.14-1.8-7.62,12.38c-7.61,2.94-15.22,6.02-22.94,8.62-.24.27,1.57,5.05,1.94,5.41.26.25,2,.84,2.43.91,2.54.4,4.7-.69,6.83-1.93,9.12-5.32,21.39-18.63,32.53-10.18.88.67,2.1,2.38,3.12,2.45.84.05,5.29-1.52,6.38-1.94,8.76-3.31,16.38-9.23,18.2-18.91ZM11.64,46.17c-.25-.18-4.97,1.72-5.8,1.65l.58,2.2c.55.39,5.08-1.83,6.09-1.92.11-.14-.78-1.86-.87-1.92ZM6.95,60.05c.26.93-.68,1.97.19,2.45,2.12,1.19,7.19,1.75,9.56,1.31,5.09-.93,15.74-9.71,21.11-12.53,4.87-2.56,9.22-3.77,13.91,0,.65.52,3.14,3.39,3.51,3.45.25.04,1.28-.76,1.77-.94,6.19-2.3,7.93,1.1,13.07,2.5,2.74.74,5.15,1.01,7.9.13,1.55-.5,2.15-.79,1.82-2.63-.22-1.22-.89-.24-1.67,0-9.29,2.77-11.37-3.67-18.73-2.88-.81.09-3.61,1.14-3.88,1.06-.13-.04-1.42-1.69-1.85-2.07-11.73-10.33-24.61,6.7-35.24,10.64-4.11,1.52-7.44,1.12-11.47-.49Z"/>
  </g>
</svg>