<?xml version="1.0" encoding="UTF-8"?>
<svg id="Layer_1" data-name="Layer 1" xmlns="http://www.w3.org/2000/svg" viewBox="0 0 90.81 136.21">
  <defs>
    <style>
      .cls-1 {
        fill: #ed1c24;
      }

      .cls-2 {
        fill: #fff;
      }

      .cls-3 {
        fill: #2e3192;
      }
    </style>
  </defs>
  <g id="v4LqZZ">
    <g>
      <path class="cls-3" d="M.23,0h90.58v136.21H.23V0ZM8.63,8.63v119.18h74.01V8.63H8.63Z"/>
      <rect class="cls-2" width=".23" height="136.21"/>
      <g>
        <path class="cls-2" d="M8.63,8.63h74.01v119.18H8.63V8.63ZM27.01,17.71v14.53h8.63v-14.53h-8.63ZM70.15,39.05v-5.79l-11.24-15.55-11.01,15.32v6.02l6.81-1.14v81.16l.34.34h8.29V37.91l6.81,1.14ZM35.64,41.32h-8.63v13.62h8.63v-13.62ZM35.64,64.02h-8.63v13.62h8.63v-13.62ZM35.64,86.72h-8.63v12.49l-7.04-1.14v5.56l11.24,15.55,11.01-15.32v-5.79l-6.58,1.14v-12.49Z"/>
        <g>
          <polygon class="cls-3" points="70.15 39.05 63.34 37.91 63.34 119.41 55.05 119.41 54.71 119.07 54.71 37.91 47.9 39.05 47.9 33.03 58.91 17.71 70.15 33.26 70.15 39.05"/>
          <g>
            <polygon class="cls-1" points="35.64 86.72 35.64 99.21 42.23 98.07 42.23 103.86 31.21 119.18 19.98 103.63 19.98 98.07 27.01 99.21 27.01 86.72 35.64 86.72"/>
            <rect class="cls-1" x="27.01" y="17.71" width="8.63" height="14.53"/>
            <rect class="cls-1" x="27.01" y="41.32" width="8.63" height="13.62"/>
            <rect class="cls-1" x="27.01" y="64.02" width="8.63" height="13.62"/>
          </g>
        </g>
      </g>
    </g>
  </g>
</svg>