<?xml version="1.0" encoding="UTF-8"?>
<svg id="Layer_1" data-name="Layer 1" xmlns="http://www.w3.org/2000/svg" viewBox="0 0 91.09 91.09">
  <defs>
    <style>
      .cls-1 {
        fill: #fefdfd;
      }

      .cls-2 {
        fill: #27aae1;
      }

      .cls-3 {
        fill: #ee2a7b;
      }

      .cls-4 {
        fill: #fff200;
      }
    </style>
  </defs>
  <g id="Wy4IiG">
    <g>
      <path class="cls-3" d="M91.09.15v90.94H.15V.15s90.94,0,90.94,0ZM26.11,20.04c-1.96,1.52-4.52,4.18-6.07,6.22l-11.39-11.23v67.71h67.71l-25.05-25.2c2.33-1.08,5.11-3.6,6.22-5.92l25.2,25.05V8.65H14.88l11.23,11.39Z"/>
      <polygon class="cls-1" points=".15 91.09 0 91.09 0 0 91.09 0 91.09 .15 .15 .15 .15 91.09"/>
      <g>
        <path class="cls-3" d="M31.73,25.66l8.05,8.2c-.65.31-2.06,1.34-2.65,1.83-.49.4-.89.95-1.38,1.36l-3.2-3.78c-.39-.07-2.28,2.5-2.94,2.57l-4.1-4.1c1.88-2.72,3.58-4.23,6.22-6.07Z"/>
        <path class="cls-1" d="M26.11,20.04l-11.23-11.39h67.87v68.02l-25.2-25.05c5.41-11.32-6.47-23.22-17.76-17.76l-8.05-8.2c10.88-7.56,24.89-5.39,33.32,4.71l.05.58-4.37,3.31,3.34,3.47,15.79,2.51-2.47-15.52-.26-.5-3.27-3.11-3.34,4.4c-10.92-13.21-29.94-15.84-43.87-5.6-.19.14-.51.12-.54.14Z"/>
        <path class="cls-3" d="M45.09,39.02l7.29,7.29c-.28,3.26-3.13,5.95-6.38,6.07l-4.25-4.4s.06-.3.22-.46c.55-.54,1.85-1.64,2.22-2.19.1-.15.2-.24.13-.44-.08-.26-3.65-2.54-4.07-3.06,1.07-1.58,2.92-2.67,4.84-2.81Z"/>
        <path class="cls-1" d="M52.38,46.31l-7.29-7.29c4.15-.31,7.65,3.12,7.29,7.29Z"/>
        <path class="cls-1" d="M20.04,26.27c-17.85,23.51,3.61,57.34,32.37,50.81.32-.07,1.56-.26,1.63-.5.17-.55-2.62-5.84-2.73-6.89-11.36,2.59-23.12-3.18-27.96-13.71-3.66-7.96-2.8-17.08,2.15-24.24l4.1,4.1-2.43,14.57,13.7-2.16c.17-.1.8-.2.87-.27l4.25,4.4c-1.18.04-1.96-.23-3.04-.39l-2.26,5.84c3.39,1.38,7.3,1.25,10.61-.29l25.05,25.2H8.65V15.03l11.39,11.23Z"/>
        <g>
          <path class="cls-2" d="M26.11,20.04s.35,0,.54-.14c13.94-10.24,32.95-7.61,43.87,5.6l3.34-4.4,3.27,3.11.26.5,2.47,15.52-15.79-2.51-3.34-3.47,4.37-3.31-.05-.58c-8.43-10.1-22.44-12.27-33.32-4.71-2.65,1.84-4.35,3.36-6.22,6.07-4.96,7.16-5.81,16.28-2.15,24.24,4.84,10.53,16.6,16.3,27.96,13.71.11,1.05,2.89,6.34,2.73,6.89-.07.24-1.31.43-1.63.5C23.65,83.6,2.19,49.77,20.04,26.27c1.55-2.04,4.11-4.7,6.07-6.22Z"/>
          <path class="cls-4" d="M57.54,51.62c-1.11,2.32-3.9,4.84-6.22,5.92-3.31,1.54-7.22,1.67-10.61.29l2.26-5.84c1.08.16,1.87.44,3.04.39,3.25-.12,6.09-2.81,6.38-6.07.36-4.17-3.14-7.59-7.29-7.29-1.92.14-3.77,1.23-4.84,2.81.42.52,3.99,2.79,4.07,3.06.06.2-.04.29-.13.44-.37.55-1.67,1.65-2.22,2.19-.16.16-.2.44-.22.46-.08.07-.71.16-.87.27l-13.7,2.16,2.43-14.57c.66-.07,2.55-2.64,2.94-2.57l3.2,3.78c.49-.41.89-.95,1.38-1.36.59-.49,2.01-1.51,2.65-1.83,11.29-5.46,23.18,6.44,17.76,17.76Z"/>
        </g>
      </g>
    </g>
  </g>
</svg>