<?xml version="1.0" encoding="UTF-8"?>
<svg id="Layer_1" data-name="Layer 1" xmlns="http://www.w3.org/2000/svg" viewBox="0 0 91.3 91.3">
  <defs>
    <style>
      .cls-1 {
        fill: #fefdfd;
      }

      .cls-2 {
        fill: #fd0000;
      }

      .cls-3 {
        fill: #f1f2f2;
      }

      .cls-4 {
        fill: #fff200;
      }
    </style>
  </defs>
  <g id="h9SZuh">
    <g>
      <path class="cls-2" d="M91.3.15v91.15H.15V.15s91.15,0,91.15,0ZM29.67,23.43c0,3.73,1.89,7.25,5.32,8.91,2.03.98,6.19.58,5.79,3.95-.12,1.03-.9,1.1-1.53,1.67-1.18,1.08-2.7,2.8-3.19,4.34L8.67,15.06v67.86h67.86l-27.69-27.69c.38-.13,1.33-1.01,1.8-.73.1.06,1.03,1.61,1.32,1.95,3.98,4.67,10.05,6.57,16.06,5.48l14.91,14.76V8.67H15.06l14.61,14.76Z"/>
      <polygon class="cls-1" points=".15 91.3 0 91.3 0 0 91.3 0 91.3 .15 .15 .15 .15 91.3"/>
      <g>
        <path class="cls-4" d="M36.06,42.3c-.3.94-.41,2.36-.46,3.35-9.03-.43-18.21,10-16.02,18.83,2.88,11.62,20.81,9.12,19.52-3.85-.19-1.92-1.92-3.79-.16-5.64,1.32-1.38,2.46-.07,3.96.31,1.74.44,4.23.52,5.93-.07l27.69,27.69H8.67V15.06l27.39,27.24Z"/>
        <path class="cls-4" d="M29.67,23.43l-14.61-14.76h67.86v68.02l-14.91-14.76c5.94-1.08,10.39-5.2,9.72-11.62-.81-7.7-11.01-11.46-16.64-6.03-1.01.98-1.48,2.44-3.2,2.59-2.84.24-2.21-2.06-2.77-3.92-.67-2.23-2.41-4.77-4.61-5.67.82-1.84,1.65-3.72,1.94-5.75.78-5.62-1.93-12.25-6.43-15.7-6.76-5.2-16.36-1.05-16.35,7.61Z"/>
        <path class="cls-3" d="M29.67,23.43c0-8.66,9.59-12.8,16.35-7.61,4.5,3.46,7.21,10.08,6.43,15.7-.28,2.02-1.11,3.9-1.94,5.75,2.2.9,3.94,3.44,4.61,5.67.56,1.86-.06,4.17,2.77,3.92,1.71-.15,2.18-1.61,3.2-2.59,5.63-5.43,15.84-1.67,16.64,6.03.67,6.42-3.78,10.54-9.72,11.62s-12.08-.81-16.06-5.48c-.29-.34-1.22-1.89-1.32-1.95-.47-.28-1.42.6-1.8.73-1.71.6-4.19.52-5.93.07-1.51-.38-2.64-1.69-3.96-.31-1.77,1.84-.03,3.72.16,5.64,1.29,12.97-16.64,15.46-19.52,3.85-2.19-8.83,6.99-19.26,16.02-18.83.05-.99.16-2.41.46-3.35.49-1.54,2.01-3.26,3.19-4.34.63-.57,1.41-.64,1.53-1.67.39-3.37-3.76-2.97-5.79-3.95-3.43-1.66-5.32-5.18-5.32-8.91Z"/>
      </g>
    </g>
  </g>
</svg>