<?xml version="1.0" encoding="UTF-8"?>
<svg id="Layer_1" data-name="Layer 1" xmlns="http://www.w3.org/2000/svg" viewBox="0 0 91.3 90.99">
  <defs>
    <style>
      .cls-1 {
        fill: #ed1c24;
      }

      .cls-2 {
        fill: #2e3192;
      }

      .cls-3 {
        fill: #006838;
      }

      .cls-4 {
        fill: #fff200;
      }
    </style>
  </defs>
  <g id="kgQUiK">
    <g>
      <path class="cls-4" d="M0,0h91.3v90.99H0S0,0,0,0ZM9.8,9.14v72.25h72.48V9.14H9.8Z"/>
      <g>
        <path class="cls-1" d="M9.8,9.14h72.48v72.25H9.8V9.14ZM69.37,13.41H25.2l22.14,22.09,22.03-22.09ZM15.09,45.57v30.33h64.39v-30.33H15.09Z"/>
        <polygon class="cls-3" points="69.37 13.41 47.34 35.5 25.2 13.41 69.37 13.41"/>
        <g>
          <path class="cls-2" d="M15.09,45.57h64.39v30.33H15.09v-30.33ZM47.28,72.7c.27-6.67,2.61-12.81,6.63-18.12.24-.31,1.46-1.51,1.46-1.62v-3.05s-.22-.23-.23-.23h-15.24s-.23.21-.23.23v4.04h10.27c-4.07,5.4-6.88,11.94-7,18.75h4.35Z"/>
          <path class="cls-1" d="M47.28,72.7h-4.35c.12-6.8,2.93-13.35,7-18.75h-10.27v-4.04s.22-.23.23-.23h15.24s.23.21.23.23v3.05c0,.11-1.22,1.3-1.46,1.62-4.02,5.32-6.35,11.46-6.63,18.12Z"/>
        </g>
      </g>
    </g>
  </g>
</svg>