<?xml version="1.0" encoding="UTF-8"?>
<svg id="Layer_1" data-name="Layer 1" xmlns="http://www.w3.org/2000/svg" viewBox="0 0 91.3 91.3">
  <defs>
    <style>
      .cls-1 {
        fill: #fefdfd;
      }

      .cls-2 {
        fill: #fd0000;
      }

      .cls-3 {
        fill: #00a651;
      }

      .cls-4 {
        fill: #fff;
      }
    </style>
  </defs>
  <g id="r6oSBD">
    <g>
      <path class="cls-2" d="M91.3.15v91.15H.15V.15s91.15,0,91.15,0ZM43.82,37.74c-1.84,2.45-2.01,8.07-1.37,10.96l-2.74-2.59c.11-2.85-.42-7.28-2.66-9.29-1.74-1.55-4.19-1.64-6.16-.45.08-.88-.87-.59-1.52-.61L8.67,15.06v67.86h67.86l-28.15-28.3c3.87.17,5.58-2.46,6.24-5.93l3.96,3.8c0,.66,0,1.32,0,1.98.66,0,1.32,0,1.98,0l22.37,22.37V8.67H15.06l28.76,29.06Z"/>
      <polygon class="cls-1" points=".15 91.3 0 91.3 0 0 91.3 0 91.3 .15 .15 .15 .15 91.3"/>
      <g>
        <path class="cls-4" d="M54.63,48.69c-.66,3.47-2.37,6.11-6.24,5.93-3.32-.15-5.26-2.9-5.93-5.93s-.47-8.5,1.37-10.96c1.3-1.74,3.75-2.41,5.81-1.93,5.13,1.18,5.79,8.67,4.99,12.89ZM46.41,40.32c-.57,1-.7,1.95-.77,3.11-.11,1.86.03,7.32,2.4,7.81,3.39.7,3.28-3.85,3.24-6.05-.04-1.95-.34-6.63-3.23-6.21-.87.13-1.25.67-1.64,1.34Z"/>
        <g>
          <path class="cls-4" d="M58.58,52.5c-.06-5.58.04-11.16,0-16.74h3.65s-.03.78,0,.91c1.25-.83,2.51-1.19,4.03-1.06.28.02,1.8.35,1.88.47.3.46-.99,3.65-1.05,4.39-1.06-1.26-2.72-1.97-4.11-.69-.19.17-.75,1.04-.75,1.22v13.47c-.56,0-1.12,0-1.67,0-.66.01-1.32,0-1.98,0,0-.66,0-1.32,0-1.98Z"/>
          <path class="cls-4" d="M75.32,29.37v6.39h3.35v3.65h-3.35v11.18c0,.08.59.56.75.62,1.22.38,1.75-.44,2.75-.84.12.14-.39,3.47-.48,3.62s-1.45.59-1.74.62c-1.54.19-3.31-.16-4.2-1.55-.18-.28-.73-1.61-.73-1.86v-11.56s-.21-.23-.23-.23h-2.51v-3.42s.21-.23.23-.23h2.51v-5.17l3.65-1.22Z"/>
        </g>
        <path class="cls-4" d="M11.59,52.78c-.2-.34,1.33-2.41,1.35-3.01.26-.18,1.08.62,1.41.78,1.35.69,3.54,1.17,4.9.28,1.03-.67,1.16-2.18.3-3.05s-3.77-1.87-4.99-2.62c-6.24-3.79-1.37-11.24,5.68-9.18.42.12,2.65,1.14,2.73,1.39.11.38-1.3,2.47-1.59,2.94-1.28-.83-4.12-2.02-5.4-.84-.71.65-.75,1.98.01,2.59,1.13.91,3.75,1.74,5.16,2.61,2.32,1.43,3.41,3.61,2.37,6.3-1.55,4.01-6.93,4.42-10.37,2.77-.2-.09-1.5-.89-1.55-.96Z"/>
        <g>
          <path class="cls-4" d="M39.71,46.11c-.2,5.24-2.81,10.24-8.83,7.91v5.25c-1.13.59-2.44.89-3.65,1.29v-24.8c.71.01,1.42-.02,2.13,0,.65.02,1.6-.27,1.52.61,1.97-1.19,4.42-1.1,6.16.45,2.24,2,2.77,6.44,2.66,9.29ZM32.87,39.11c-.83.03-1.66.34-1.97,1.14l.03,10.08c2.19,1.3,3.96.82,4.76-1.64.52-1.61.55-4.88.23-6.54s-1.17-3.11-3.04-3.04Z"/>
          <path class="cls-2" d="M35.91,42.15l-3.04-3.04c1.88-.07,2.72,1.38,3.04,3.04Z"/>
        </g>
        <path class="cls-2" d="M51.28,45.19c.05,2.2.15,6.76-3.24,6.05-2.37-.49-2.51-5.95-2.4-7.81.07-1.17.19-2.11.77-3.11l4.87,4.87Z"/>
        <g>
          <path class="cls-3" d="M43.82,37.74L15.06,8.67h67.86v68.17l-22.37-22.37c.56,0,1.12,0,1.67,0v-13.47c0-.19.57-1.05.75-1.22,1.4-1.28,3.06-.57,4.11.69.06-.74,1.34-3.93,1.05-4.39-.08-.13-1.6-.45-1.88-.47-1.52-.13-2.78.23-4.03,1.06-.04-.13.04-.91,0-.91h-3.65c.04,5.58-.06,11.16,0,16.74l-3.96-3.8c.8-4.22.14-11.71-4.99-12.89-2.07-.47-4.51.19-5.81,1.93ZM75.32,29.37l-3.65,1.22v5.17h-2.51s-.23.21-.23.23v3.42h2.51s.23.21.23.23v11.56c0,.25.55,1.58.73,1.86.89,1.39,2.66,1.74,4.2,1.55.29-.03,1.64-.46,1.74-.62s.61-3.48.48-3.62c-1,.4-1.52,1.23-2.75.84-.16-.05-.75-.53-.75-.62v-11.18h3.35v-3.65h-3.35v-6.39Z"/>
          <path class="cls-3" d="M51.28,45.19l-4.87-4.87c.38-.67.76-1.21,1.64-1.34,2.9-.42,3.19,4.26,3.23,6.21Z"/>
        </g>
        <g>
          <path class="cls-3" d="M29.37,35.76c-.71-.02-1.42.01-2.13,0v24.8c1.21-.4,2.53-.7,3.65-1.29v-5.25c6.02,2.33,8.63-2.67,8.83-7.91l2.74,2.59c.67,3.03,2.61,5.79,5.93,5.93l28.15,28.3H8.67V15.06l20.69,20.69ZM11.59,52.78c.05.08,1.35.87,1.55.96,3.44,1.65,8.82,1.25,10.37-2.77,1.04-2.69-.05-4.87-2.37-6.3-1.4-.87-4.03-1.7-5.16-2.61-.76-.61-.73-1.93-.01-2.59,1.28-1.18,4.12.01,5.4.84.29-.48,1.71-2.56,1.59-2.94-.07-.25-2.31-1.27-2.73-1.39-7.04-2.07-11.91,5.39-5.68,9.18,1.22.74,4.14,1.76,4.99,2.62s.72,2.37-.3,3.05c-1.35.89-3.55.41-4.9-.28-.33-.17-1.15-.96-1.41-.78-.02.6-1.55,2.67-1.35,3.01Z"/>
          <path class="cls-3" d="M32.87,39.11l3.04,3.04c.33,1.66.29,4.93-.23,6.54-.8,2.46-2.57,2.94-4.76,1.64l-.03-10.08c.31-.8,1.15-1.12,1.97-1.14Z"/>
        </g>
      </g>
    </g>
  </g>
</svg>