<?xml version="1.0" encoding="UTF-8"?>
<svg id="Layer_1" data-name="Layer 1" xmlns="http://www.w3.org/2000/svg" viewBox="0 0 91.3 91.64">
  <defs>
    <style>
      .cls-1 {
        fill: #be1e2d;
      }

      .cls-2 {
        fill: #080701;
      }

      .cls-3 {
        fill: #f0f003;
      }
    </style>
  </defs>
  <g id="kREbjE">
    <g>
      <path class="cls-1" d="M5.41,89.54c-1.31-.34-3.59-3.49-3.32-5.04V7.49c.16-2.86,2.45-5.36,5.4-5.4h76.67c2.09-.01,4.59,1.06,5.15,3.21.55,26.7.07,53.5.24,80.24.12,1.03-1.82,4-2.62,4h-12.71v-5.92h8.88s.52-.49.52-.52V8.55s-.49-.52-.52-.52H8.37v75.59h8.71v5.92H5.41Z"/>
      <g>
        <path class="cls-3" d="M90.82,88.73c-.09.15-1.99,2.04-2.19,2.16-.8.47-2.14.68-3.08.76H5.75c-3.38-.07-5.68-2.36-5.75-5.75V5.75c.06-.92.31-2.21.9-2.93.12-.15,2.04-2.03,2.17-2.1.57-.32,2.3-.66,3.02-.72h79.45c3.03.27,5.79,2.13,5.75,5.4v80.84c-.03.78-.06,1.82-.48,2.49ZM5.41,89.54h11.67v-5.92h-8.71V8.03h74.72s.52.49.52.52v74.55s-.49.52-.52.52h-8.88v5.92h12.71c.8,0,2.74-2.97,2.62-4-.17-26.74.31-53.54-.24-80.24-.56-2.15-3.06-3.22-5.15-3.21H7.49c-2.95.04-5.24,2.54-5.4,5.4v77.01c-.26,1.55,2.02,4.7,3.32,5.04ZM68.99,15.34H24.92s-.52.49-.52.52v10.97h29.96c-.29,1.18-1.88,2.05-2.61,2.79-6.92,6.99-13.88,14.04-20.72,21.08-2.74,2.83-5.62,5.53-8.37,8.35v13.06h46.33v-10.97s-.49-.52-.52-.52h-30.83l1.6-2.06c9.8-9.78,19.77-19.47,29.57-29.3.33-4.61.19-9.37.18-13.93ZM28.93,88.15c-.77-1.4-1.64-7.8-3.84-6.45-.34.21-2.37,6.17-2.08,6.45,1.86.29.8-1.68,2.61-1.78,2.52-.14,1.07,2.31,3.31,1.77ZM36.59,81.53v6.62c0,.07,1.34.05,1.39,0,.35-.33-.64-2.86.53-2.8,2.61.15,1.03,1.41,1.73,2.46,1.06,1.6,1.43-.66,1.22-1.92-.1-.63-.55-.78-.69-1.06s.64.09.73-.67c.42-3.45-2.46-2.55-4.91-2.64ZM42.86,88.15c3.16.25,5.61.18,5.6-3.66,0-3.36-3.08-3.07-5.6-2.96v6.62ZM55.05,83.27c1.09-1.01-4.75-3.49-5.49.6-.88,4.85,2.41,4.21,5.84,4.27v-3.48s-2.78,0-2.78,0c-.33,1.24,1.55.36,1.74,1.22.29,1.32-3.6,2.98-3.85-.71-.3-4.41,4.31-1.7,4.55-1.91ZM58.27,86.84c1.91-1.92,2.9,1.53,3.25,1.64.42.13,1.17-.18,1.19-.5.03-.35-2.31-6.31-2.64-6.42-.38-.13-.84-.08-1.19.13-.27.17-2.2,5.22-2.42,5.95-.18.62.08.49.51.51,1.47.07.7-.71,1.3-1.31ZM68.29,83.27c-.64-3.17-6.44-1.7-4.55,1.17.45.69,3.81.85,3.51,2.14-.44,1.9-3.52-.51-3.83-.17-.7,1.77,1.98,1.98,3.3,1.73s2.1-1.81,1.26-2.98-3.49-.44-3.16-2.58c1.6-.88,1.82,1.03,3.48.69ZM35.54,88.15c-.5-1.34-1.81-7.52-3.85-6.11-.27.18-2.3,5.89-2.07,6.11.9.88,1.37-1.35,1.73-1.57.42-.25,2.21-.38,2.49.03.56.84-.34,1.94,1.7,1.54Z"/>
        <path class="cls-2" d="M68.99,15.34c0,4.56.15,9.32-.18,13.93-9.8,9.83-19.77,19.52-29.57,29.3l-1.6,2.06h30.83s.52.49.52.52v10.97H22.66v-13.06c2.75-2.83,5.62-5.53,8.37-8.35,6.84-7.04,13.8-14.09,20.72-21.08.73-.74,2.32-1.61,2.61-2.79h-29.96v-10.97s.49-.52.52-.52h44.07Z"/>
        <path class="cls-3" d="M42.86,88.15v-6.62c2.53-.11,5.6-.4,5.6,2.96,0,3.84-2.44,3.91-5.6,3.66ZM46.61,83.01c-.26-.22-2.22-.56-2.35-.43v4.53c2.63,1.03,3.68-2.95,2.35-4.1Z"/>
        <path class="cls-3" d="M36.59,81.53c2.45.09,5.33-.81,4.91,2.64-.09.76-.86.39-.73.67s.58.43.69,1.06c.21,1.25-.16,3.52-1.22,1.92-.7-1.05.88-2.3-1.73-2.46-1.17-.07-.18,2.47-.53,2.8-.05.05-1.39.07-1.39,0v-6.62ZM38.02,84.63c.87.25,2.75-.37,2.4-1.53-1.51-1.24-3.58-.56-2.4,1.53Z"/>
        <path class="cls-3" d="M58.27,86.84c-.59.6.17,1.39-1.3,1.31-.44-.02-.7.11-.51-.51.22-.73,2.14-5.78,2.42-5.95.34-.21.81-.26,1.19-.13.33.11,2.67,6.07,2.64,6.42-.02.32-.77.64-1.19.5-.35-.11-1.34-3.57-3.25-1.64ZM59.45,83.82c-.26.26-.79.43-.88.7-.55,1.67,2.71,1.8,1.36-1.25-.51-.13-.26.32-.48.54Z"/>
        <path class="cls-3" d="M28.93,88.15c-2.24.53-.79-1.91-3.31-1.77-1.81.1-.74,2.06-2.61,1.78-.29-.29,1.74-6.25,2.08-6.45,2.2-1.35,3.07,5.05,3.84,6.45ZM26.49,85.36l-.52-2.43c-.72.62-.96,1.52-.87,2.44h1.39Z"/>
        <path class="cls-3" d="M55.05,83.27c-.24.22-4.85-2.5-4.55,1.91.25,3.69,4.14,2.02,3.85.71-.19-.86-2.07.02-1.74-1.22h2.79s0,3.48,0,3.48c-3.42-.06-6.71.58-5.84-4.27.74-4.1,6.58-1.61,5.49-.6Z"/>
        <path class="cls-3" d="M68.29,83.27c-1.66.34-1.88-1.57-3.48-.69-.33,2.14,2.35,1.46,3.16,2.58s.05,2.74-1.26,2.98-3.99.03-3.3-1.73c.31-.34,3.39,2.07,3.83.17.3-1.29-3.05-1.45-3.51-2.14-1.89-2.87,3.91-4.33,4.55-1.17Z"/>
        <path class="cls-3" d="M35.54,88.15c-2.04.4-1.14-.7-1.7-1.54-.27-.41-2.06-.29-2.49-.03-.36.22-.83,2.45-1.73,1.57-.23-.22,1.8-5.93,2.07-6.11,2.04-1.41,3.35,4.77,3.85,6.11ZM32.76,82.92c-.68-.72-1.39,2.08-1.39,2.44h2.09c-.22-.41-.61-2.34-.7-2.44Z"/>
        <path class="cls-3" d="M46.61,83.01c1.33,1.15.28,5.13-2.35,4.1v-4.53c.13-.13,2.09.21,2.35.43Z"/>
        <path class="cls-3" d="M38.02,84.63c-1.18-2.09.88-2.77,2.4-1.53.36,1.15-1.53,1.78-2.4,1.53Z"/>
        <path class="cls-3" d="M59.45,83.82c.22-.22-.03-.67.48-.54,1.35,3.05-1.9,2.91-1.36,1.25.09-.28.62-.44.88-.7Z"/>
        <path class="cls-3" d="M26.49,85.36h-1.39c-.09-.92.15-1.82.87-2.43l.52,2.43Z"/>
        <path class="cls-3" d="M32.76,82.92c.09.09.48,2.03.7,2.44h-2.09c0-.36.71-3.16,1.39-2.44Z"/>
      </g>
    </g>
  </g>
</svg>