<?xml version="1.0" encoding="UTF-8"?>
<svg id="Layer_1" data-name="Layer 1" xmlns="http://www.w3.org/2000/svg" viewBox="0 0 91.3 91.3">
  <defs>
    <style>
      .cls-1 {
        fill: #cf2923;
      }

      .cls-2 {
        fill: #fff;
      }

      .cls-3 {
        fill: #2e3192;
      }
    </style>
  </defs>
  <rect class="cls-1" width="91.3" height="91.3"/>
  <polygon class="cls-2" points="4.5 13.2 4.5 86.96 76.3 86.96 4.5 13.2"/>
  <polygon class="cls-2" points="86.39 77.06 86.39 3.3 14.58 3.3 86.39 77.06"/>
  <g id="zdQmgT">
    <g>
      <path class="cls-2" d="M91.21,43.6l.05-40.17c-.1-1.86-1.54-3.37-3.42-3.42h-40.62C46.34.31,46.21.31,45.33,0H3.11C1.42.1.15,1.64,0,3.27v39.83c0,.73.66.84,0,1.41v43.49c.17,1.87,1.75,3.19,3.59,3.26l42.13-.08c.76-.7.6-.02,1.34.08,13.84-.15,27.72.25,41.53-.21,1.2-.29,2.05-1.17,2.46-2.32.42-14.71.18-29.57.12-44.3-.76-.57-.03-.68.04-.84Z"/>
      <g>
        <path class="cls-3" d="M91.21,43.6c-.07.15-.8.27-.04.84.06,14.73.3,29.59-.12,44.3-.41,1.15-1.26,2.02-2.46,2.32-13.81.46-27.69.06-41.53.21-.74-.1-.58-.78-1.34-.08l-42.13.08c-1.84-.07-3.42-1.39-3.58-3.26v-43.49c.66-.57,0-.68,0-1.41V3.27C.15,1.64,1.42.1,3.11,0h42.22C46.21.31,46.34.31,47.22,0h40.62c1.88.06,3.33,1.57,3.42,3.43l-.05,40.17ZM81.63,9.41H15.62c-.07.28.11.32.24.48.31.4,1.03,1.15,1.41,1.54,6.53,6.65,13.35,13.74,20.08,20.13.32.3,1.22,1.1,1.6,1.1h9.47v.64h-9.08l13.61,13.64c2.95-1.52,6.56-1.32,9.75-2.22l4.02-8.08-13.42-.99-2.5-2.99,22.54-.15c1.15-1.36,4.27-1.16,3.49,1.1-2.7,4.45-5.65,15.85-10.48,18.03-2.47,1.12-5.24.31-7.83.28-.19,0-.7-.1-.56.24l23.65,23.65V9.41ZM26.29,32.5L9.57,15.78v66.09h66.09s-24.94-25.15-24.94-25.15c-.31-.05-1.67,1.95-1.94,2.33-1.24,1.71-3.15,4.14-4.14,5.89-.1.17-.23.3-.19.53l15.12,5.42c.16.19-.5,1.87-.71,1.88l-34.47-12.81c-.6-.54-1.12-1-1.41-1.78-.2-.55-.65-1.95-.04-2.27,1.54,2.45,5.03,3.37,7.65,4.37,3.48,1.33,7.05,2.47,10.56,3.74l6.13-10.61-19.96-20.11h-12.1c-.3,0-.3-.8,0-.8h11.07Z"/>
        <g>
          <path class="cls-2" d="M26.29,32.5h-11.07c-.3,0-.3.8,0,.8h12.1l19.96,20.11-6.13,10.61c-3.51-1.27-7.07-2.41-10.56-3.74-2.63-1-6.12-1.92-7.65-4.37-.61.32-.16,1.73.04,2.27.29.78.81,1.24,1.41,1.78l34.47,12.81c.2-.01.87-1.69.71-1.88l-15.12-5.42c-.05-.23.09-.35.19-.53.99-1.75,2.91-4.18,4.14-5.89.27-.38,1.63-2.38,1.94-2.33l24.94,25.15H9.57s0-66.08,0-66.08l16.72,16.72Z"/>
          <path class="cls-2" d="M81.63,9.41v66.4s-23.65-23.65-23.65-23.65c-.14-.34.37-.25.56-.24,2.59.03,5.35.83,7.83-.28,4.83-2.18,7.78-13.58,10.48-18.03.78-2.26-2.34-2.46-3.49-1.1l-22.54.15,2.5,2.99,13.42.99-4.02,8.08c-3.19.9-6.8.69-9.75,2.22l-13.61-13.64h9.08v-.64h-9.47c-.38,0-1.28-.8-1.6-1.1-6.73-6.39-13.55-13.48-20.08-20.13-.38-.39-1.1-1.14-1.41-1.54-.12-.16-.31-.2-.24-.48h66.01ZM79.64,27.56c0-2.03-1.65-3.68-3.68-3.68s-3.68,1.65-3.68,3.68,1.65,3.68,3.68,3.68,3.68-1.65,3.68-3.68Z"/>
          <circle class="cls-3" cx="75.96" cy="27.56" r="3.68"/>
        </g>
      </g>
    </g>
  </g>
</svg>