<?xml version="1.0" encoding="UTF-8"?>
<svg id="Layer_1" data-name="Layer 1" xmlns="http://www.w3.org/2000/svg" viewBox="0 0 542.84 891.4">
  <defs>
    <style>
      .cls-1 {
        fill: #fff;
      }
    </style>
  </defs>
  <path d="M267.73,891.4c.53-.84,1.93-.51,2.79-.52,4.07-.05,8.16-.04,12.23,0,.86,0,2.26-.33,2.79.52h-17.81Z"/>
  <path d="M286.05,891.4c1.19-.85,4.31-.87,5.6,0h-5.6Z"/>
  <path d="M292.16,891.4c.61-.72,1.39-.7,2.04,0h-2.04Z"/>
  <polygon points="0 364.5 8.14 361.96 7.8 363.49 2.3 364.98 2.3 366.01 0 364.5"/>
  <path d="M3.05,366.54c1.26-.27,2.24.93,3.33,1,.79.05,2.63-1.11,2.77,0-2.14.3-4.91,1.55-6.1-1.01Z"/>
  <circle cx="8.64" cy="359.93" r=".63"/>
  <polygon points="4.58 493.81 5.59 493.81 5.59 494.82 4.58 493.81"/>
  <polygon points="446.38 685.73 447.4 684.71 447.4 685.73 446.38 685.73"/>
  <rect x="399.05" width="1.01" height=".5" transform="translate(799.11 .5) rotate(180)"/>
  <rect x="278.93" y="92.65" width=".5" height="1.01" transform="translate(558.36 186.31) rotate(180)"/>
  <rect x="130.81" y="266.76" width=".5" height="1.01" transform="translate(262.13 534.53) rotate(180)"/>
  <rect x="508.48" y="317.16" width="1.01" height=".5" transform="translate(1017.98 634.82) rotate(180)"/>
  <path d="M435.95,676.06c-.33-.17-.33-.34,0-.51v.51Z"/>
  <path d="M102.05,708.13c-.33-.17-.33-.34,0-.51v.51Z"/>
  <path d="M299.54,774.31c-.33-.17-.33-.34,0-.51v.51Z"/>
  <path d="M407.45,267.77c-.33-.17-.33-.34,0-.51v.51Z"/>
  <path d="M542.84,135.41c-.33-.17-.33-.34,0-.51v.51Z"/>
  <path d="M251.19,121.67c-.33-.17-.33-.34,0-.51v.51Z"/>
  <path d="M29.77,90.61c-.33-.17-.33-.34,0-.51v.51Z"/>
  <path d="M299.54,775.84c-.33-.17-.33-.34,0-.51v.51Z"/>
  <path d="M301.07,775.84c-.33-.17-.33-.34,0-.51v.51Z"/>
  <path class="cls-1" d="M301.07,775.84v-.51c-.33.17-.33.34,0,.51ZM299.54,775.84v-.51c-.33.17-.33.34,0,.51ZM299.54,774.31v-.51c-.33.17-.33.34,0,.51ZM418.39,705.08h11.96c.37,0,1.45.9,2.29.51.07-.57.02-1.01-.25-1.52-1.53-2.91-9.6-7.56-10.57-9.82-.81-1.88.62-2.82.6-4.63-.09-9.54-9.24-18.81-12.79-26.43-1.13-2.43-1.1-5.88-2.35-8.85-4.41-10.55-21.36-18.96-31.31-23.67-7.52-3.56-19.46-7.14-25.97-11.18-3.2-1.98-7.57-7.81-10.78-10.6-3.44-2.99-7.81-6.26-11.95-8.17,7.03-9.61,14.3-19.07,20.11-29.51.93-1.68,1.88-5.82,3.3-5.36l.43-.56c-.16-10.15,3-19.97,4.08-30.04,2.62-24.36.57-50.62,1.09-75.27.4-19.08-1.19-34.57-3.06-53.45-2.03-20.45-3.46-39.43-8.4-59.31-6.21-25.01-12.12-47.88-9.41-74.07.44-4.29,2.32-7.1,2.56-10.68.76-11.53-1.27-24.26-.52-36.16,1.09-17.44,7.67-31.82,11.04-48.01.13-.63,1.18-4.19-.1-4.17l-5.81,18.61c-7.03,20.4-5.75,40.19-6.68,61.03-.58,13.08-2.99,26.07-2.55,39.24.84,25.03,10.31,48.83,14.21,73.35,3.31,20.79,3.28,42.76,6.14,63.09,1.79,12.69,1.11,23.57,1.03,36.09-.16,24.95,1.66,50.04-1.57,74.8-1.44,11.02-3.08,23.61-8.49,33.25-1.71,3.04-17.17,25.74-18.75,26.05l-21.05-9.11,1.03-1.27-1.81-2.28-.68.09c-.07,1.85-4.62-.42-6.16-.88-.84-.25-1.71-.25-2.57-.23l2.04-1.52c-6.87.95-13.4-1.89-20.14-3.02-.98-1.34,1.19-5.49,1.57-7.16.66-2.92,3.25-18.6,2.78-20.52-.09-.36-.86-.32-.97-.74-1.99-8.1-1.33-17.04-2.08-25.32-.31-3.36-2.08-8.59-1.86-11.65.27-3.83,5.66-14.27,7.19-18.67,2.05-5.88,3.56-12.32,5.37-18.3,5.71,3.58,5.48-1.09,5.02-5.79-1.2-12.21-10.16-21.16-16.65-30.69-3.61-5.3-6.51-11.08-10.05-16.43-4.49-6.78-9.9-13.05-13.85-20.23-.06-.78.61-1.69.99-2.37,7.59-13.61,20.66-28.01,30.14-40.62,11.88-15.8,23.35-32.2,30.79-50.66.45-.96-1.01-.9-1.4-.63-.36.25-3.07,6.99-3.64,8.07-.9.09-.54-1.72-.5-2.28,1.19-15.3,3.86-31.44,8.41-46.06l3.28-7.65c-.07,3.45-.57,6.96-1.08,10.36-.31,2.07-2.06,6.41-1.21,7.97.91,1.67,2-3.29,2.16-3.97,3.6-15.9,1.54-33.06,2.18-49.24.43-10.74,1.63-21.87,2.55-32.58.22-2.56,1.6-6.42,1.54-8.69-.02-.92-.16-1.74-1.29-1.75l-1.78,11.46c.26,10.92-2.1,21.67-2.55,32.58-.36,8.62,1.07,19.83-.05,27.95-.47,3.41-4.29,10.39-5.57,14.28-5.78,17.49-6.63,36.14-8.92,54.29-10.73,19.99-25.49,37.22-39.21,54.87-2.23,2.87-5.64,5.2-5.85,8.87l-9.63,14.09c-.94.64-5.17-8.29-5.59-9.16,2.43.35,3.92,2.33,5.34,4.06l1.25-1.26c-4.53-5.4-7.4-12.05-9.89-18.6-6.76-17.78-8.97-29.97-6.88-49.11.98-8.92.95-11.36,6.63-18.32,5.07-6.22,10.79-12,16.03-18.08,7.16-8.31,14.36-18.7,22.69-25.67,10.97-9.17,24.02-16.17,34.37-26.2,1.57-1.19,2.71-.19,4.25.19-.81-1.61-2.47-2.69-4.23-1.72-3.19,1.75-6.98,5.93-10.06,8.29-19.69,15.09-40.05,26.75-59.97,40.82-1.29.91-8.75,6.31-8.69,7.08.18,2.11,3.82-1.8,4.1-2,10.06-7.06,20.47-14.01,31.51-19.39l-33.84,39.46c-.68-2.66.62-5.18.26-7.9-.09-.7-.27-1.49-1.01-.75-1.21,4.24-2.85,8.41-3.83,12.72-.14.6-.75,2.67-.74,2.81.14,1.88,1.99-.95,2.53-.51-.59,3.17-1.24,6.46-1.53,9.67-.86,9.72-1.94,22.43-.36,31.92.7,4.2,2.31,8.51,3.42,12.62,2.3.21.31-4.26.12-5.47-.09-.54-.54-1.77.38-1.65,2.71,9.2,5.66,18.5,10.69,26.73-1.55.52-2.67-1.55-4.32-1.79-1.95-.28,1.28,3.66,1.68,4.43.6,1.15,4.13,7.59,4.14,8.04.08,2.5-2.28,2.91-3.26,3.85-1.81,1.76-2.68,6.09-3.75,8.46-3.98,8.77-9.09,16.23-9.32,25.9-.03,1.33-5.22,10.66-6.34,12.41-1.31,2.06-5.53,6.48-6.09,7.7-.36.79.29,1.55-.18,2.29-1.45,2.29-17.08,13.42-20.65,16.53-1.25,1.09-4.11,4.58-5.11,5.07-1.5.73.54-2.22-1-1.52-.28.13-4.02,3.49-4.6,4.05-7.42,7.1-10.4,14.58-16.54,22.14-9.37,11.53-28.11,26.23-41.38,32.94-12.32,6.24-32.44,15.54-45.27,19.26-.52.15-.6,1.08-1.19,1.45-2.79,1.75-5.29.4-8.59.6-4.01.24-8.38,1.99-12.28,2.48-5.78.74-12.28.39-18.21,1.13-2.78.35-9.49,2.46-11.27,2.43-1.56-.03-3.06-2.47-4.32-.71,3.2,1.65.52,1.86.49,2.03-.28,1.65,1.75,2.27,2.96,2.66,3.7,1.2,14.8.11,19.14-.43,5.55-.69,11-2.8,16.6-2.99l-8.14,5.35.76.76c4.12-1.69,8.77-5.21,13.07-6.28,1.37-.34,9.62-.59,9.57-1.62l-1.52-1.02c1.12-3.1,35.21-13.94,40.71-16.3,3.06-1.31,7.62-3.07,10.14-5.13,1.95-1.59,2.33-3.52,3.86-4.8,12.17-10.16,25-18.04,35.37-30.81,4.16-5.12,7-10.44,11.71-15.27,5.29-5.41,12.51-11.88,18.32-16.8,7.71-6.54,23.04-16.25,27.77-24.66.38-.68,2.08-4.3,1.76-4.6-1.19-.07-1.08-.29-1.66.64-1.24,1.97-1.76,4.88-4.43,5.73,3.6-5.63,7.18-12.07,9.76-18.23,4.08-9.76,5.58-20.83,12.11-29.37-2.52,7.97-6.58,15.49-8.72,23.6-4.96,18.74-6.13,36.81-4.99,56.1.64,10.77,2.63,21.33,6.06,31.56,2.17,6.45,8.29,17.56,9.19,23.4.24,1.58-1.48-.48-2.02,1.01,3.65,9.68,3.22,20.27,5.07,30.3-2.8.02-5.63.26-8.42.49-.91.07-1.64-.15-2.26.79.62.96,1.36.7,2.26.78,2.32.22,4.68.29,6.99.64.6.09,2.47.13,2.44.86l-44.54,20.36c.14-.59,3.4-4.1.59-2.97-1.06.43-3.01,3.04-4.17,3.98-6.54,5.34-13.22,10.43-19.34,16.29l-33.58,34.12.77-4.32c-2.11-.54-2.2,4.08-2.95,5.7-1.16,2.51-4.96,6-5.7,8.56-.3,1.05,1.05.97,1.45.68.25-.18.74-3.06,2.09-2.74-1.86,2.86-3.69,5.79-5.68,8.57-5.63,7.84-13.03,17.13-19.49,24.28-1.5,1.66-6.31,6.97-7.94,7.84-2.47,1.32-6.3.7-9.12,1.32l.51,1.52c-9.19.61-18.71,1.35-27.73-1.01l-.27,1.28c9.5,2.6,19.98.67,29.8,1.29l22.12-1.55c1.18-1.11-3.78-2.54-4.32-2.54h-8.91c12.66-14.46,26.57-28.81,34.85-46.35,20.21-19.05,36.96-42.69,62.19-55.4,13.94-7.03,28.7-13.33,43.18-18.95l14.51,2.09c-.5,5.01.65,10.12.53,15.04-.38,16.02-5.36,36.37,1.09,51.3.41.95,1.54,3.31,1.45,4.14-5.75,6.92-12.74,13.2-18.33,20.39-2.29,2.94-6.25,8.2-8.06,11.28-.33.57-.75.95-.6,1.69.95.88,5.21-3.92,6.55-4.39l5.66-2.99c-9.44,9.93-16.06,21.99-24.01,33.01-1.09,1.51-3.13,2.45-2.97,4.41,4.46,1.03,2.21-.65,2.91-2.39,6.74-9.41,12.75-19.37,20.01-28.39,2.25-2.79,6.2-7.94,8.64-10.19,3.9-3.6,10.38-6.71,14.49-10.44l7.4,16.8c2.14.53.1-2.71,1.51-3.05,4.08,6.03,10.94,10.61,16.85,14.97,11.46,8.46,23.25,16.99,34.91,25.16,1.13.79,2.83,2.07,3.98,2.65,1.55.78,1.94-1.6.55-1.59-18.2-14.61-39.89-25.92-55.98-42.75l-2.35-5.55-1.5-.02-.51,2.04-3.49-9.85c1.16-1.02,8.57-8.95,7.55-10l-8.91,6.1c-.47-1.72-2.9-5.49-1.82-6.9.41-.53,1.66-1.06,2.35-1.74,12.02-11.96,25.26-24.11,35.13-37.67l9.72-11.68c7.32,3.81,13.45,9.52,19,15.48-2.51.61-9.47-6.34-10.42-6.36-.34,0-.92.74-.52,1.53,1.39,2.71,15.47,10.06,19.11,13.47,1.04.97,1.18,3.08,3.8,3.33,1.33.05-1.73-3.78-2.01-4.1-.8-.89-3.27-1.62-2.57-3.03,13.9,6.87,29.64,11.62,42.16,20.96,5.53,4.12,11.59,10.06,12.31,17.21-1.74-3.24-6.22-6.37-5.86-10.17h-1.53c-2,1.94,6.64,10.45,7.36,12.23.63,1.56.02,3.26,1.08,5.03,1.35,2.24,2.76,1.1,3.68,1.66s7.36,14.8,7.87,16.82c.57,2.29,2.09,6.02-1.16,6.52v.74s10.68,10.19,10.68,10.19c-5.48,1.55-11.48-.12-17.03,1.27-1.93,1.32,4.59,2.41,5.13,2.48,12.86,1.69,27.66.21,40.64-.47,2.01-.1,4.19-.11,6.15.37l.74-1.36-44.56.53-2.26-1.05ZM364.69,710.17v-.51c-.33.17-.33.34,0,.51ZM102.05,708.13v-.51c-.33.17-.33.34,0,.51ZM446.38,685.73h1.02s0-1.01,0-1.01l-1.01,1.01ZM435.95,676.06v-.51c-.33.17-.33.34,0,.51ZM391.92,652.63h1.52s0-1.52,0-1.52h-1.01s-.51,1.52-.51,1.52ZM366.98,644.49l-1,.76.76.76.25-1.52ZM66.17,568.13h1.01v-.5h-1.01v.5ZM77.88,566.09h1.01v-.5h-1.01v.5ZM4.58,493.81l1.01,1.01v-1.02s-1.01,0-1.01,0ZM321.68,443.4h1.52v-.5h-1.52v.5ZM319.14,442.38c.08.07,1.86.59,2.03.51.14-.74-1.26-.88-2.03-1.01.03.16-.07.43,0,.5ZM3.05,366.54c1.2,2.56,3.97,1.3,6.1,1.01-.14-1.11-1.98.04-2.77,0-1.09-.07-2.07-1.27-3.33-1ZM0,364.5l2.3,1.51v-1.04s5.5-1.49,5.5-1.49l.34-1.53-8.14,2.55ZM8.01,359.93c0,.35.28.63.63.63s.63-.28.63-.63-.28-.63-.63-.63-.63.28-.63.63ZM320.41,349.74v-.51c-.33.17-.33.34,0,.51ZM508.48,317.66h1.01v-.5h-1.01v.5ZM407.45,267.77v-.51c-.33.17-.33.34,0,.51ZM130.81,266.76v1.01h.5v-1.01h-.5ZM542.84,135.41v-.51c-.33.17-.33.34,0,.51ZM251.19,121.67v-.51c-.33.17-.33.34,0,.51ZM278.93,92.65v1.01h.5v-1.01h-.5ZM29.77,90.61v-.51c-.33.17-.33.34,0,.51ZM399.05.5h1.01v-.5h-1.01v.5Z"/>
  <g>
    <polygon points="391.92 652.63 392.44 651.11 393.45 651.12 393.45 652.64 391.92 652.63"/>
    <polygon points="366.98 644.49 366.73 646.02 365.97 645.26 366.98 644.49"/>
    <rect x="321.68" y="442.9" width="1.52" height=".5" transform="translate(644.89 886.3) rotate(180)"/>
    <rect x="77.88" y="565.59" width="1.01" height=".5" transform="translate(156.77 1131.68) rotate(180)"/>
    <rect x="66.17" y="567.63" width="1.01" height=".5" transform="translate(133.35 1135.75) rotate(180)"/>
    <path d="M319.14,442.38c-.07-.07.02-.33,0-.5.77.13,2.17.27,2.03,1.01-.17.08-1.95-.44-2.03-.51Z"/>
    <path d="M320.41,349.74c-.33-.17-.33-.34,0-.51v.51Z"/>
    <path d="M364.69,710.17c-.33-.17-.33-.34,0-.51v.51Z"/>
    <path d="M418.39,705.08l2.26,1.05,44.56-.53-.74,1.36c-1.96-.47-4.14-.47-6.15-.37-12.98.68-27.78,2.16-40.64.47-.55-.07-7.06-1.17-5.13-2.48,5.56-1.39,11.55.28,17.03-1.27l-10.68-10.19v-.74c3.25-.5,1.73-4.23,1.16-6.52-.51-2.02-6.97-16.28-7.87-16.82s-2.34.58-3.68-1.66c-1.06-1.77-.45-3.47-1.08-5.03-.71-1.78-9.36-10.3-7.36-12.24h1.53c-.36,3.8,4.11,6.93,5.86,10.17-.72-7.16-6.77-13.09-12.31-17.21-12.53-9.34-28.26-14.08-42.16-20.96-.7,1.41,1.77,2.14,2.57,3.03.28.32,3.34,4.15,2.01,4.1-2.62-.25-2.76-2.36-3.8-3.33-3.65-3.41-17.72-10.76-19.11-13.47-.4-.78.18-1.53.52-1.53.95.02,7.91,6.97,10.42,6.36-5.55-5.96-11.68-11.67-19-15.48l-9.72,11.68c-9.86,13.56-23.11,25.7-35.13,37.67-.68.68-1.93,1.21-2.35,1.74-1.08,1.4,1.35,5.17,1.82,6.9l8.91-6.1c1.02,1.05-6.39,8.98-7.55,10l3.49,9.85.51-2.04,1.5.02,2.35,5.55c16.09,16.83,37.79,28.14,55.98,42.75,1.39,0,1,2.38-.55,1.59-1.15-.58-2.85-1.86-3.98-2.65-11.65-8.17-23.45-16.7-34.91-25.16-5.9-4.36-12.77-8.94-16.85-14.97-1.41.34.63,3.58-1.51,3.05l-7.4-16.8c-4.11,3.74-10.59,6.85-14.49,10.44-2.44,2.25-6.39,7.4-8.64,10.19-7.27,9.03-13.27,18.98-20.01,28.39-.7,1.74,1.55,3.41-2.91,2.39-.16-1.96,1.87-2.9,2.97-4.41,7.95-11.01,14.56-23.08,24.01-33.01l-5.66,2.99c-1.34.47-5.6,5.27-6.55,4.39-.16-.74.26-1.12.6-1.69,1.82-3.08,5.77-8.34,8.06-11.28,5.59-7.19,12.58-13.47,18.33-20.39.08-.83-1.05-3.2-1.45-4.14-6.45-14.94-1.47-35.29-1.09-51.3.12-4.91-1.03-10.03-.53-15.04l-14.51-2.09c-14.49,5.62-29.24,11.93-43.18,18.95-25.23,12.71-41.98,36.35-62.19,55.4-8.27,17.54-22.19,31.89-34.85,46.35h8.91c.54,0,5.51,1.43,4.32,2.54l-22.12,1.55c-9.82-.62-20.3,1.31-29.8-1.29l.27-1.28c9.02,2.36,18.54,1.62,27.73,1.01l-.51-1.52c2.82-.62,6.65,0,9.12-1.32,1.63-.87,6.44-6.18,7.94-7.84,6.46-7.15,13.87-16.44,19.49-24.28,1.99-2.77,3.82-5.7,5.68-8.57-1.35-.32-1.84,2.56-2.09,2.74-.4.29-1.75.37-1.45-.68.74-2.56,4.54-6.05,5.7-8.56.75-1.62.84-6.25,2.95-5.7l-.77,4.32,33.58-34.12c6.12-5.86,12.8-10.95,19.34-16.29,1.15-.94,3.11-3.55,4.17-3.98,2.81-1.14-.45,2.38-.59,2.97l44.54-20.36c.03-.74-1.84-.77-2.44-.86-2.31-.36-4.67-.43-6.99-.64-.9-.08-1.64.18-2.26-.78.61-.93,1.35-.71,2.26-.79,2.79-.22,5.62-.47,8.42-.49-1.85-10.04-1.42-20.62-5.07-30.3.54-1.49,2.26.57,2.02-1.01-.89-5.83-7.02-16.95-9.19-23.4-3.44-10.23-5.43-20.79-6.06-31.56-1.14-19.29.03-37.36,4.99-56.1,2.15-8.1,6.21-15.63,8.72-23.6-6.53,8.54-8.03,19.61-12.11,29.37-2.58,6.17-6.16,12.6-9.76,18.23,2.67-.85,3.19-3.75,4.43-5.73.58-.92.47-.71,1.66-.64.32.29-1.38,3.91-1.76,4.6-4.73,8.41-20.05,18.12-27.77,24.66-5.81,4.92-13.04,11.39-18.32,16.8-4.72,4.83-7.55,10.14-11.71,15.27-10.37,12.77-23.2,20.64-35.37,30.81-1.53,1.28-1.9,3.2-3.86,4.8-2.52,2.06-7.08,3.82-10.14,5.13-5.5,2.36-39.59,13.2-40.71,16.3l1.52,1.02c.05,1.03-8.19,1.28-9.57,1.62-4.3,1.07-8.95,4.59-13.07,6.28l-.76-.76,8.14-5.35c-5.61.18-11.05,2.3-16.6,2.99-4.34.54-15.44,1.62-19.14.43-1.21-.39-3.24-1.01-2.96-2.66.03-.17,2.71-.38-.49-2.03,1.26-1.75,2.76.68,4.32.71,1.78.03,8.49-2.08,11.27-2.43,5.92-.74,12.43-.4,18.21-1.13,3.9-.5,8.26-2.24,12.28-2.48,3.3-.2,5.81,1.16,8.59-.6.59-.37.67-1.3,1.19-1.45,12.83-3.72,32.94-13.02,45.27-19.26,13.27-6.71,32.01-21.41,41.38-32.94,6.15-7.57,9.12-15.05,16.54-22.14.59-.56,4.32-3.93,4.6-4.05,1.55-.7-.5,2.25,1,1.52,1-.49,3.86-3.99,5.11-5.07,3.57-3.11,19.2-14.24,20.65-16.53.47-.74-.18-1.5.18-2.29.56-1.22,4.77-5.65,6.09-7.7,1.11-1.74,6.3-11.08,6.34-12.41.23-9.66,5.35-17.12,9.32-25.9,1.07-2.37,1.94-6.7,3.75-8.46.98-.95,3.34-1.36,3.26-3.85-.01-.45-3.54-6.9-4.14-8.04-.4-.77-3.63-4.71-1.68-4.43,1.65.24,2.77,2.32,4.32,1.79-5.03-8.22-7.98-17.53-10.69-26.73-.92-.12-.47,1.11-.38,1.65.2,1.22,2.18,5.68-.12,5.47-1.11-4.11-2.72-8.42-3.42-12.62-1.57-9.49-.5-22.2.36-31.92.29-3.21.94-6.5,1.53-9.67-.54-.44-2.39,2.39-2.53.51-.01-.15.61-2.21.74-2.81.98-4.31,2.62-8.48,3.83-12.72.74-.74.92.05,1.01.75.36,2.72-.94,5.24-.26,7.9l33.84-39.46c-11.03,5.38-21.45,12.33-31.51,19.39-.28.19-3.92,4.11-4.1,2-.07-.77,7.39-6.17,8.69-7.08,19.92-14.07,40.29-25.73,59.97-40.82,3.08-2.36,6.87-6.54,10.06-8.29,1.76-.97,3.41.12,4.23,1.72-1.54-.38-2.68-1.38-4.25-.19-10.35,10.03-23.41,17.03-34.37,26.2-8.33,6.96-15.53,17.36-22.69,25.67-5.24,6.08-10.95,11.86-16.03,18.08-5.68,6.96-5.65,9.4-6.63,18.32-2.09,19.14.12,31.33,6.88,49.11,2.49,6.55,5.36,13.2,9.89,18.6l-1.25,1.26c-1.42-1.73-2.91-3.71-5.34-4.06.42.87,4.65,9.8,5.59,9.16l9.63-14.09c.21-3.67,3.62-6,5.85-8.87,13.72-17.65,28.48-34.88,39.21-54.87,2.29-18.15,3.14-36.8,8.92-54.29,1.28-3.89,5.1-10.87,5.57-14.28,1.12-8.12-.31-19.33.05-27.95.45-10.91,2.81-21.66,2.55-32.58l1.78-11.46c1.12.01,1.26.84,1.29,1.75.06,2.26-1.32,6.13-1.54,8.69-.91,10.71-2.12,21.83-2.55,32.58-.64,16.18,1.42,33.34-2.18,49.24-.15.68-1.25,5.64-2.16,3.97-.85-1.56.9-5.9,1.21-7.97.52-3.4,1.01-6.91,1.08-10.36l-3.28,7.65c-4.55,14.62-7.22,30.76-8.41,46.06-.04.56-.41,2.37.5,2.28.56-1.08,3.28-7.82,3.64-8.07.4-.27,1.85-.34,1.4.63-7.44,18.47-18.92,34.86-30.79,50.66-9.47,12.6-22.55,27.01-30.14,40.62-.38.68-1.06,1.59-.99,2.37,3.94,7.17,9.36,13.45,13.85,20.23,3.54,5.34,6.44,11.13,10.05,16.43,6.49,9.53,15.45,18.49,16.65,30.69.46,4.7.69,9.37-5.02,5.79-1.81,5.98-3.32,12.42-5.37,18.3-1.53,4.4-6.92,14.84-7.19,18.67-.22,3.07,1.55,8.29,1.86,11.65.75,8.27.09,17.22,2.08,25.32.1.42.88.38.97.74.47,1.92-2.12,17.6-2.78,20.52-.38,1.67-2.55,5.82-1.57,7.16,6.74,1.13,13.27,3.98,20.14,3.02l-2.04,1.52c.86-.02,1.73-.02,2.57.23,1.54.47,6.08,2.74,6.16.88l.68-.09,1.81,2.28-1.03,1.27,21.05,9.11c1.58-.31,17.04-23.01,18.75-26.05,5.42-9.64,7.05-22.23,8.49-33.25,3.23-24.76,1.41-49.85,1.57-74.8.08-12.52.76-23.4-1.03-36.09-2.86-20.33-2.84-42.3-6.14-63.09-3.9-24.52-13.37-48.32-14.21-73.35-.44-13.17,1.97-26.17,2.55-39.24.93-20.84-.35-40.63,6.68-61.03l5.81-18.61c1.29-.02.23,3.54.1,4.17-3.37,16.19-9.95,30.57-11.04,48.01-.75,11.9,1.29,24.63.52,36.16-.24,3.58-2.12,6.39-2.56,10.68-2.71,26.19,3.2,49.06,9.41,74.07,4.94,19.88,6.36,38.86,8.4,59.31,1.88,18.88,3.47,34.38,3.06,53.45-.52,24.65,1.53,50.91-1.09,75.27-1.08,10.07-4.24,19.89-4.08,30.04l-.43.56c-1.42-.46-2.37,3.68-3.3,5.36-5.81,10.44-13.08,19.9-20.11,29.51,4.13,1.9,8.51,5.18,11.95,8.17,3.21,2.79,7.58,8.62,10.78,10.6,6.52,4.04,18.45,7.62,25.97,11.18,9.94,4.71,26.9,13.12,31.31,23.67,1.24,2.98,1.22,6.42,2.35,8.85,3.54,7.62,12.69,16.88,12.79,26.43.02,1.81-1.42,2.75-.6,4.63.97,2.25,9.04,6.91,10.57,9.82.27.52.32.96.25,1.52-.84.39-1.92-.51-2.29-.51h-11.96ZM117.32,703.04c2.47-.28,5.36.21,7.89,0v-.51h-9.16c-.2,1.95.62.58,1.27.51ZM115.29,703.55v-.51c-.33.17-.33.34,0,.51ZM277.9,654.68c-8.45,7.9-16.92,16.32-22.65,26.46,10.03-4.62,16.02-13.5,24.62-19.93l-1.97-6.53ZM287.58,676.06v1.01h.5v-1.01h-.5ZM272.56,669.94l8.4-6.85c-.93-1.15-.71-.64-1.52,0-1.02.8-2.37,1.92-3.32,2.79-1.2,1.1-2.87,2.6-3.55,4.08ZM409.23,665.37c-.2,1.22.65,2.65,2.03,2.54l-2.03-2.54ZM286.05,658.24c-1.59.59-4.34,2.1-4.07,4.07l4.07-4.07ZM279.68,651.11l22.95-22.39-.57-2.05c2.7-1.67,5-3.8,7.16-6.09,3-3.19,6.57-7.57,9.39-10.97.78-.94,6.96-8.43,6.63-8.88-15.85-7.22-32.03-15.01-49.37-17.83-.21,4.99.27,10.05.02,15.04-.51,10.16-4.26,33.57-.69,41.6.52,1.16.37,5.36.8,7.12M261.11,579.33l13.23,2.05c.84-3.77,1.13-7.7,2.05-11.45.25-1.03,1.2-1.42,1.5-2.58,2.08-7.96.19-13.31-.47-20.86-.77-8.88-.91-17.85-2.05-26.72h-2.04c.79-1.98.5-4.45.79-6.18.25-1.49,4-8.03,4.91-10.27,3.82-9.48,7.73-19.74,9.07-29.87h1.52c-.12,2.65-.46,4.42,2.3,5.6.48-.89.8-2.27.78-3.28-.38-13.15-10.65-21.94-17.13-32.29-7.38-11.77-14.13-24.26-22.8-35.25-.42-.53.02-1.28-1.31-.96,2.01,2.66.4,2.67-.38,4.45-4.49,10.13-6.97,20.37-9.65,31.07-4.97,19.79-5.53,39.61-2.62,59.85s13.37,36.27,17.49,55.81c.29,1.39.97,3.23.51,4.58-1.91-1.23-1.82-2.87-2.43-4.7-.23-.69-.89-1.64-.9-.12l2.62,18.01,13.18-1.46-1.4,1.39-6.74,3.18ZM261.62,577.3c-.88.04-5.06-.37-5.08.76.66.95,1.14.84,2.17.66.42-.07,2.75-.85,2.91-1.42ZM252.46,578.31h2.54v-.5h-2.54v.5ZM34.1,574.25c3.64,3.08,10.27.7,14.76,1.01l-9.38-1.03-.54,1.05c-1.45.41-1.16-.92-1.62-1.02-.96-.22-2.2.1-3.22,0ZM48.1,573.73v-.51c-.33.17-.33.34,0,.51ZM52.94,573.22l10.37-.57,8.97-1.97-5.32-.52-14.02,3.06ZM41.74,572.21c.58,1.51,2.59.97,3.84,1.04l6.34-2.05-10.18,1.02ZM73.3,569.14c2.42.95,4.62.46,6.95-.42.53-.2,1.77-.42,1.69-1.1l-8.65,1.52ZM100.02,561.51v-.51c-.33.17-.33.34,0,.51ZM101.03,561v-.51c-.33.17-.33.34,0,.51ZM101.8,560.49h1.01v-.5h-1.01v.5ZM103.58,559.99v-.51c-.33.17-.33.34,0,.51ZM104.49,559.79l7.67-3.46-.29-.63-7.67,3.46.29.63ZM114.77,556.92c7.06-3.68,15.7-4.88,21.63-10.43-1.92.15-3.34,2.07-5.06,2.57-1.3.38-2.54.15-3.96.62-3.22,1.07-7.74,4.91-11.34,5.97l-1.27,1.27ZM112.74,555.91v-.51c-.33.17-.33.34,0,.51ZM113.76,555.4v-.51c-.33.17-.33.34,0,.51ZM117.32,553.88v-.51c-.33.17-.33.34,0,.51ZM253.22,552.35v-.51c-.33.17-.33.34,0,.51ZM252.57,551.44l.6-.17-1.33-4.63-.6.17,1.33,4.63ZM236.1,440.94l2.69-6.98-.66-.26-2.69,6.98.66.26ZM250.17,410.32v-.51c-.33.17-.33.34,0,.51ZM250.42,409.29h1.02s0-1.01,0-1.01l-1.01,1.01ZM237.7,366.54v1.01h.5v-1.01h-.5ZM237.13,317.7l.6-3.51-.6-.1-.6,3.51.6.1Z"/>
    <path class="cls-1" d="M261.11,579.33l6.74-3.18,1.4-1.39-13.18,1.46-2.62-18.01c.01-1.51.67-.56.9.12.61,1.83.52,3.47,2.43,4.7.46-1.36-.21-3.19-.51-4.58-4.13-19.55-14.64-35.96-17.49-55.81s-2.35-40.06,2.62-59.85c2.69-10.7,5.17-20.94,9.65-31.07.79-1.78,2.4-1.79.38-4.45,1.33-.32.89.42,1.31.96,8.67,10.99,15.42,23.48,22.8,35.25,6.49,10.34,16.76,19.13,17.13,32.29.03,1.01-.3,2.39-.78,3.28-2.76-1.18-2.41-2.95-2.3-5.6h-1.52c-1.35,10.13-5.26,20.39-9.07,29.87-.9,2.24-4.66,8.78-4.91,10.27-.28,1.73,0,4.2-.79,6.18h2.04c1.14,8.86,1.28,17.84,2.05,26.72.66,7.55,2.54,12.9.47,20.86-.3,1.15-1.24,1.54-1.5,2.58-.92,3.75-1.21,7.68-2.05,11.45l-13.23-2.05ZM262.89,528.93v-.51c-.33.17-.33.34,0,.51Z"/>
    <path class="cls-1" d="M114.77,556.92l1.27-1.27c3.6-1.06,8.11-4.9,11.34-5.97,1.42-.47,2.66-.24,3.96-.62,1.72-.5,3.14-2.42,5.06-2.57-5.93,5.55-14.57,6.75-21.63,10.43Z"/>
    <polygon class="cls-1" points="52.94 573.22 66.95 570.16 72.27 570.68 63.3 572.65 52.94 573.22"/>
    <path class="cls-1" d="M34.1,574.25c1.02.11,2.26-.22,3.22,0,.46.1.17,1.44,1.62,1.02l.54-1.05,9.38,1.03c-4.49-.31-11.12,2.07-14.76-1.01Z"/>
    <path class="cls-1" d="M272.56,669.94c.69-1.47,2.35-2.98,3.55-4.08.95-.87,2.3-1.98,3.32-2.79.81-.63.6-1.14,1.52,0l-8.4,6.85Z"/>
    <path class="cls-1" d="M41.74,572.21l10.18-1.02-6.34,2.05c-1.25-.06-3.26.47-3.84-1.04Z"/>
    <path class="cls-1" d="M73.3,569.14l8.65-1.52c.07.68-1.16.9-1.69,1.1-2.33.88-4.53,1.37-6.95.42Z"/>
    <path class="cls-1" d="M117.32,703.04c-.65.07-1.47,1.44-1.27-.51h9.16v.51c-2.53.21-5.42-.28-7.89,0Z"/>
    <path class="cls-1" d="M261.62,577.3c-.16.56-2.49,1.34-2.91,1.42-1.02.18-1.5.29-2.17-.66.01-1.13,4.2-.72,5.08-.76Z"/>
    <path class="cls-1" d="M286.05,658.24l-4.07,4.07c-.28-1.96,2.48-3.48,4.07-4.07Z"/>
    <rect class="cls-1" x="233.38" y="436.97" width="7.48" height=".71" transform="translate(730.51 373.77) rotate(111.13)"/>
    <path class="cls-1" d="M409.23,665.37l2.03,2.54c-1.38.11-2.23-1.32-2.03-2.54Z"/>
    <rect class="cls-1" x="103.97" y="557.39" width="8.42" height=".7" transform="translate(436.28 1021.55) rotate(155.7)"/>
    <rect class="cls-1" x="252.46" y="577.81" width="2.54" height=".5" transform="translate(507.46 1156.12) rotate(180)"/>
    <rect class="cls-1" x="235.36" y="315.6" width="3.56" height=".61" transform="translate(588.54 135.51) rotate(99.72)"/>
    <polygon class="cls-1" points="250.42 409.29 251.43 408.28 251.44 409.3 250.42 409.29"/>
    <rect class="cls-1" x="251.89" y="546.63" width=".63" height="4.82" transform="translate(646.38 1006.95) rotate(163.95)"/>
    <rect class="cls-1" x="101.8" y="559.99" width="1.01" height=".5" transform="translate(204.61 1120.48) rotate(180)"/>
    <rect class="cls-1" x="287.58" y="676.06" width=".5" height="1.01" transform="translate(575.67 1353.13) rotate(180)"/>
    <rect class="cls-1" x="237.7" y="366.54" width=".5" height="1.01" transform="translate(475.9 734.09) rotate(180)"/>
    <path class="cls-1" d="M48.1,573.73c-.33-.17-.33-.34,0-.51v.51Z"/>
    <path class="cls-1" d="M250.17,410.32c-.33-.17-.33-.34,0-.51v.51Z"/>
    <path class="cls-1" d="M253.22,552.35c-.33-.17-.33-.34,0-.51v.51Z"/>
    <path class="cls-1" d="M117.32,553.88c-.33-.17-.33-.34,0-.51v.51Z"/>
    <path class="cls-1" d="M115.29,703.55c-.33-.17-.33-.34,0-.51v.51Z"/>
    <path class="cls-1" d="M113.76,555.4c-.33-.17-.33-.34,0-.51v.51Z"/>
    <path class="cls-1" d="M112.74,555.91c-.33-.17-.33-.34,0-.51v.51Z"/>
    <path class="cls-1" d="M100.02,561.51c-.33-.17-.33-.34,0-.51v.51Z"/>
    <path class="cls-1" d="M103.58,559.99c-.33-.17-.33-.34,0-.51v.51Z"/>
    <path class="cls-1" d="M101.03,561c-.33-.17-.33-.34,0-.51v.51Z"/>
    <path d="M292.41,615.99c-.33-.17-.33-.34,0-.51v.51Z"/>
  </g>
</svg>